%FSLAX25Y25*%
%MOIN*%
G70*
G01*
G75*
%ADD10R,0.09000X0.15000*%
%ADD11C,0.05000*%
%ADD12C,0.02500*%
%ADD13R,0.46000X0.47000*%
%ADD14R,0.35500X1.86000*%
%ADD15R,0.36000X1.86000*%
%ADD16R,0.37000X1.86000*%
%ADD17R,0.36500X1.86000*%
%ADD18R,0.39000X1.87000*%
%ADD19R,0.37000X1.87000*%
%ADD20R,0.37500X1.87000*%
%ADD21R,0.38000X1.87000*%
%ADD22R,0.15000X1.88000*%
%ADD23O,0.06300X0.05500*%
%ADD24C,0.40000*%
%ADD25R,0.05906X0.05906*%
%ADD26C,0.05906*%
%ADD27C,0.05906*%
%ADD28R,0.10780X1.86811*%
G04:AMPARAMS|DCode=29|XSize=1868.11mil|YSize=107.8mil|CornerRadius=26.95mil|HoleSize=0mil|Usage=FLASHONLY|Rotation=270.000|XOffset=0mil|YOffset=0mil|HoleType=Round|Shape=RoundedRectangle|*
%AMROUNDEDRECTD29*
21,1,1.86811,0.05390,0,0,270.0*
21,1,1.81421,0.10780,0,0,270.0*
1,1,0.05390,-0.02695,-0.90711*
1,1,0.05390,-0.02695,0.90711*
1,1,0.05390,0.02695,0.90711*
1,1,0.05390,0.02695,-0.90711*
%
%ADD29ROUNDEDRECTD29*%
%ADD30C,0.05000*%
%ADD31C,0.01000*%
%ADD32C,0.01500*%
%ADD33R,0.43000X0.45000*%
%ADD34R,0.37500X1.86000*%
%ADD35C,0.00700*%
%ADD36C,0.00787*%
%ADD37C,0.00800*%
%ADD38R,0.09800X0.15800*%
%ADD39O,0.07100X0.06300*%
%ADD40C,0.40800*%
%ADD41R,0.06706X0.06706*%
%ADD42C,0.06706*%
%ADD43C,0.06706*%
%ADD44R,0.11580X1.87611*%
G04:AMPARAMS|DCode=45|XSize=1876.11mil|YSize=115.8mil|CornerRadius=30.95mil|HoleSize=0mil|Usage=FLASHONLY|Rotation=270.000|XOffset=0mil|YOffset=0mil|HoleType=Round|Shape=RoundedRectangle|*
%AMROUNDEDRECTD45*
21,1,1.87611,0.05390,0,0,270.0*
21,1,1.81421,0.11580,0,0,270.0*
1,1,0.06190,-0.02695,-0.90711*
1,1,0.06190,-0.02695,0.90711*
1,1,0.06190,0.02695,0.90711*
1,1,0.06190,0.02695,-0.90711*
%
%ADD45ROUNDEDRECTD45*%
%ADD46C,0.00800*%
%ADD47C,0.05800*%
%ADD48C,0.01969*%
%ADD49C,0.00701*%
%ADD50C,0.00500*%
%ADD51C,0.00667*%
%ADD52C,0.01200*%
%ADD53C,0.00900*%
%ADD54C,0.01600*%
%ADD55C,0.01400*%
D50*
X56500Y343957D02*
X59500D01*
X58000Y342457D02*
Y345457D01*
X56500Y351043D02*
X59500D01*
X58000Y349543D02*
Y352543D01*
X144500Y343957D02*
X147500D01*
X146000Y342457D02*
Y345457D01*
X144500Y351043D02*
X147500D01*
X146000Y349543D02*
Y352543D01*
X231500Y343957D02*
X234500D01*
X233000Y342457D02*
Y345457D01*
X231500Y351043D02*
X234500D01*
X233000Y349543D02*
Y352543D01*
X317500Y343957D02*
X320500D01*
X319000Y342457D02*
Y345457D01*
X317500Y351043D02*
X320500D01*
X319000Y349543D02*
Y352543D01*
X404500Y342957D02*
X407500D01*
X406000Y341457D02*
Y344457D01*
X404500Y350043D02*
X407500D01*
X406000Y348543D02*
Y351543D01*
X157500Y636500D02*
X182500D01*
X170000Y624000D02*
Y649000D01*
X204625Y620000D02*
X208375D01*
X206500Y618125D02*
Y621875D01*
X204625Y610000D02*
X208375D01*
X206500Y608125D02*
Y611875D01*
X214625Y620000D02*
X218375D01*
X216500Y618125D02*
Y621875D01*
X214625Y610000D02*
X218375D01*
X216500Y608125D02*
Y611875D01*
X224625Y620000D02*
X228375D01*
X226500Y618125D02*
Y621875D01*
X224625Y610000D02*
X228375D01*
X226500Y608125D02*
Y611875D01*
X234625Y620000D02*
X238375D01*
X236500Y618125D02*
Y621875D01*
X234625Y610000D02*
X238375D01*
X236500Y608125D02*
Y611875D01*
X244625Y620000D02*
X248375D01*
X246500Y618125D02*
Y621875D01*
X244625Y610000D02*
X248375D01*
X246500Y608125D02*
Y611875D01*
X254625Y620000D02*
X258375D01*
X256500Y618125D02*
Y621875D01*
X254625Y610000D02*
X258375D01*
X256500Y608125D02*
Y611875D01*
X264625Y620000D02*
X268375D01*
X266500Y618125D02*
Y621875D01*
X264625Y610000D02*
X268375D01*
X266500Y608125D02*
Y611875D01*
X274625Y620000D02*
X278375D01*
X276500Y618125D02*
Y621875D01*
X274625Y610000D02*
X278375D01*
X276500Y608125D02*
Y611875D01*
X284625Y620000D02*
X288375D01*
X286500Y618125D02*
Y621875D01*
X284625Y610000D02*
X288375D01*
X286500Y608125D02*
Y611875D01*
X294625Y620000D02*
X298375D01*
X296500Y618125D02*
Y621875D01*
X294625Y610000D02*
X298375D01*
X296500Y608125D02*
Y611875D01*
X304625Y620000D02*
X308375D01*
X306500Y618125D02*
Y621875D01*
X304625Y610000D02*
X308375D01*
X306500Y608125D02*
Y611875D01*
X314625Y620000D02*
X318375D01*
X316500Y618125D02*
Y621875D01*
X314625Y610000D02*
X318375D01*
X316500Y608125D02*
Y611875D01*
X324625Y620000D02*
X328375D01*
X326500Y618125D02*
Y621875D01*
X324625Y610000D02*
X328375D01*
X326500Y608125D02*
Y611875D01*
X334625Y620000D02*
X338375D01*
X336500Y618125D02*
Y621875D01*
X334625Y610000D02*
X338375D01*
X336500Y608125D02*
Y611875D01*
X344625Y620000D02*
X348375D01*
X346500Y618125D02*
Y621875D01*
X344625Y610000D02*
X348375D01*
X346500Y608125D02*
Y611875D01*
X354625Y620000D02*
X358375D01*
X356500Y618125D02*
Y621875D01*
X354625Y610000D02*
X358375D01*
X356500Y608125D02*
Y611875D01*
X364625Y620000D02*
X368375D01*
X366500Y618125D02*
Y621875D01*
X364625Y610000D02*
X368375D01*
X366500Y608125D02*
Y611875D01*
X374625Y620000D02*
X378375D01*
X376500Y618125D02*
Y621875D01*
X374625Y610000D02*
X378375D01*
X376500Y608125D02*
Y611875D01*
X384625Y620000D02*
X388375D01*
X386500Y618125D02*
Y621875D01*
X384625Y610000D02*
X388375D01*
X386500Y608125D02*
Y611875D01*
X394625Y620000D02*
X398375D01*
X396500Y618125D02*
Y621875D01*
X394625Y610000D02*
X398375D01*
X396500Y608125D02*
Y611875D01*
X404625Y620000D02*
X408375D01*
X406500Y618125D02*
Y621875D01*
X404625Y610000D02*
X408375D01*
X406500Y608125D02*
Y611875D01*
X414625Y620000D02*
X418375D01*
X416500Y618125D02*
Y621875D01*
X414625Y610000D02*
X418375D01*
X416500Y608125D02*
Y611875D01*
X424625Y620000D02*
X428375D01*
X426500Y618125D02*
Y621875D01*
X424625Y610000D02*
X428375D01*
X426500Y608125D02*
Y611875D01*
X434625Y620000D02*
X438375D01*
X436500Y618125D02*
Y621875D01*
X434625Y610000D02*
X438375D01*
X436500Y608125D02*
Y611875D01*
X444625Y620000D02*
X448375D01*
X446500Y618125D02*
Y621875D01*
X444625Y610000D02*
X448375D01*
X446500Y608125D02*
Y611875D01*
X50000Y636500D02*
X75000D01*
X62500Y624000D02*
Y649000D01*
X306125Y319500D02*
X309875D01*
X308000Y317625D02*
Y321375D01*
X306125Y309500D02*
X309875D01*
X308000Y307625D02*
Y311375D01*
X296125Y309500D02*
X299875D01*
X298000Y307625D02*
Y311375D01*
X296125Y319500D02*
X299875D01*
X298000Y317625D02*
Y321375D01*
X286125Y309500D02*
X289875D01*
X288000Y307625D02*
Y311375D01*
X286125Y319500D02*
X289875D01*
X288000Y317625D02*
Y321375D01*
X276125Y309500D02*
X279875D01*
X278000Y307625D02*
Y311375D01*
X276125Y319500D02*
X279875D01*
X278000Y317625D02*
Y321375D01*
X266125Y309500D02*
X269875D01*
X268000Y307625D02*
Y311375D01*
X266125Y319500D02*
X269875D01*
X268000Y317625D02*
Y321375D01*
X256125Y309500D02*
X259875D01*
X258000Y307625D02*
Y311375D01*
X256125Y319500D02*
X259875D01*
X258000Y317625D02*
Y321375D01*
X246125Y309500D02*
X249875D01*
X248000Y307625D02*
Y311375D01*
X246125Y319500D02*
X249875D01*
X248000Y317625D02*
Y321375D01*
X236125Y309500D02*
X239875D01*
X238000Y307625D02*
Y311375D01*
X236125Y319500D02*
X239875D01*
X238000Y317625D02*
Y321375D01*
X226125Y309500D02*
X229875D01*
X228000Y307625D02*
Y311375D01*
X226125Y319500D02*
X229875D01*
X228000Y317625D02*
Y321375D01*
X216125Y309500D02*
X219875D01*
X218000Y307625D02*
Y311375D01*
X216125Y319500D02*
X219875D01*
X218000Y317625D02*
Y321375D01*
X206125Y309500D02*
X209875D01*
X208000Y307625D02*
Y311375D01*
X206125Y319500D02*
X209875D01*
X208000Y317625D02*
Y321375D01*
X196125Y309500D02*
X199875D01*
X198000Y307625D02*
Y311375D01*
X196125Y319500D02*
X199875D01*
X198000Y317625D02*
Y321375D01*
X186125Y309500D02*
X189875D01*
X188000Y307625D02*
Y311375D01*
X186125Y319500D02*
X189875D01*
X188000Y317625D02*
Y321375D01*
X176125Y309500D02*
X179875D01*
X178000Y307625D02*
Y311375D01*
X176125Y319500D02*
X179875D01*
X178000Y317625D02*
Y321375D01*
X166125Y309500D02*
X169875D01*
X168000Y307625D02*
Y311375D01*
X166125Y319500D02*
X169875D01*
X168000Y317625D02*
Y321375D01*
X448000Y186716D02*
X451000D01*
X449500Y185216D02*
Y188216D01*
X448000Y498283D02*
X451000D01*
X449500Y496783D02*
Y499784D01*
X419000Y498283D02*
X422000D01*
X420500Y496783D02*
Y499784D01*
X419000Y186716D02*
X422000D01*
X420500Y185216D02*
Y188216D01*
X390000Y186716D02*
X393000D01*
X391500Y185216D02*
Y188216D01*
X390000Y498283D02*
X393000D01*
X391500Y496783D02*
Y499784D01*
X361000Y498283D02*
X364000D01*
X362500Y496783D02*
Y499784D01*
X361000Y186716D02*
X364000D01*
X362500Y185216D02*
Y188216D01*
X332000Y186716D02*
X335000D01*
X333500Y185216D02*
Y188216D01*
X332000Y498283D02*
X335000D01*
X333500Y496783D02*
Y499784D01*
X303000Y498283D02*
X306000D01*
X304500Y496783D02*
Y499784D01*
X303000Y186716D02*
X306000D01*
X304500Y185216D02*
Y188216D01*
X274000Y186716D02*
X277000D01*
X275500Y185216D02*
Y188216D01*
X274000Y498283D02*
X277000D01*
X275500Y496783D02*
Y499784D01*
X245000Y498283D02*
X248000D01*
X246500Y496783D02*
Y499784D01*
X245000Y186716D02*
X248000D01*
X246500Y185216D02*
Y188216D01*
X216000Y186716D02*
X219000D01*
X217500Y185216D02*
Y188216D01*
X216000Y498283D02*
X219000D01*
X217500Y496783D02*
Y499784D01*
X100000Y186716D02*
X103000D01*
X101500Y185216D02*
Y188216D01*
X100000Y498283D02*
X103000D01*
X101500Y496783D02*
Y499784D01*
X42000Y186716D02*
X45000D01*
X43500Y185216D02*
Y188216D01*
X42000Y498283D02*
X45000D01*
X43500Y496783D02*
Y499784D01*
X187000Y498283D02*
X190000D01*
X188500Y496783D02*
Y499784D01*
X187000Y186716D02*
X190000D01*
X188500Y185216D02*
Y188216D01*
X158000Y186716D02*
X161000D01*
X159500Y185216D02*
Y188216D01*
X158000Y498283D02*
X161000D01*
X159500Y496783D02*
Y499784D01*
X129000Y498283D02*
X132000D01*
X130500Y496783D02*
Y499784D01*
X129000Y186716D02*
X132000D01*
X130500Y185216D02*
Y188216D01*
X71000Y498283D02*
X74000D01*
X72500Y496783D02*
Y499784D01*
X71000Y186716D02*
X74000D01*
X72500Y185216D02*
Y188216D01*
X13000Y498283D02*
X16000D01*
X14500Y496783D02*
Y499784D01*
X13000Y186716D02*
X16000D01*
X14500Y185216D02*
Y188216D01*
X109250Y636500D02*
X122750D01*
X116000Y629750D02*
Y643250D01*
X427250Y30000D02*
X440750D01*
X434000Y23250D02*
Y36750D01*
X23250Y30000D02*
X36750D01*
X30000Y23250D02*
Y36750D01*
X18250Y655000D02*
X31750D01*
X25000Y648250D02*
Y661750D01*
X427250Y655000D02*
X440750D01*
X434000Y648250D02*
Y661750D01*
X443725Y72200D02*
X450475D01*
X447100Y68825D02*
Y75575D01*
X414725Y72200D02*
X421475D01*
X418100Y68825D02*
Y75575D01*
X385725Y72200D02*
X392475D01*
X389100Y68825D02*
Y75575D01*
X356725Y72200D02*
X363475D01*
X360100Y68825D02*
Y75575D01*
X327725Y72200D02*
X334475D01*
X331100Y68825D02*
Y75575D01*
X298725Y72200D02*
X305475D01*
X302100Y68825D02*
Y75575D01*
X269725Y72200D02*
X276475D01*
X273100Y68825D02*
Y75575D01*
X240725Y72200D02*
X247475D01*
X244100Y68825D02*
Y75575D01*
X211725Y72200D02*
X218475D01*
X215100Y68825D02*
Y75575D01*
X182725Y72200D02*
X189475D01*
X186100Y68825D02*
Y75575D01*
X153725Y72200D02*
X160475D01*
X157100Y68825D02*
Y75575D01*
X124725Y72200D02*
X131475D01*
X128100Y68825D02*
Y75575D01*
X95725Y72200D02*
X102475D01*
X99100Y68825D02*
Y75575D01*
X37725Y72200D02*
X44475D01*
X41100Y68825D02*
Y75575D01*
X8725Y72200D02*
X15475D01*
X12100Y68825D02*
Y75575D01*
X66725Y72200D02*
X73475D01*
X70100Y68825D02*
Y75575D01*
X443725Y342200D02*
X450475D01*
X447100Y338825D02*
Y345575D01*
X414725Y342200D02*
X421475D01*
X418100Y338825D02*
Y345575D01*
X385725Y342200D02*
X392475D01*
X389100Y338825D02*
Y345575D01*
X356725Y342200D02*
X363475D01*
X360100Y338825D02*
Y345575D01*
X327725Y342200D02*
X334475D01*
X331100Y338825D02*
Y345575D01*
X298725Y342200D02*
X305475D01*
X302100Y338825D02*
Y345575D01*
X269725Y342200D02*
X276475D01*
X273100Y338825D02*
Y345575D01*
X240725Y342200D02*
X247475D01*
X244100Y338825D02*
Y345575D01*
X211725Y342200D02*
X218475D01*
X215100Y338825D02*
Y345575D01*
X182725Y342200D02*
X189475D01*
X186100Y338825D02*
Y345575D01*
X153725Y342200D02*
X160475D01*
X157100Y338825D02*
Y345575D01*
X124725Y342200D02*
X131475D01*
X128100Y338825D02*
Y345575D01*
X95725Y342200D02*
X102475D01*
X99100Y338825D02*
Y345575D01*
X37725Y342200D02*
X44475D01*
X41100Y338825D02*
Y345575D01*
X9125Y342200D02*
X15875D01*
X12500Y338825D02*
Y345575D01*
X66725Y342200D02*
X73475D01*
X70100Y338825D02*
Y345575D01*
X443725Y678500D02*
X450475D01*
X447100Y675125D02*
Y681875D01*
X414725Y678500D02*
X421475D01*
X418100Y675125D02*
Y681875D01*
X385725Y678500D02*
X392475D01*
X389100Y675125D02*
Y681875D01*
X356725Y678500D02*
X363475D01*
X360100Y675125D02*
Y681875D01*
X327725Y678500D02*
X334475D01*
X331100Y675125D02*
Y681875D01*
X298725Y678500D02*
X305475D01*
X302100Y675125D02*
Y681875D01*
X269725Y678500D02*
X276475D01*
X273100Y675125D02*
Y681875D01*
X240725Y678500D02*
X247475D01*
X244100Y675125D02*
Y681875D01*
X211725Y678500D02*
X218475D01*
X215100Y675125D02*
Y681875D01*
X182725Y678500D02*
X189475D01*
X186100Y675125D02*
Y681875D01*
X153725Y678500D02*
X160475D01*
X157100Y675125D02*
Y681875D01*
X124725Y678500D02*
X131475D01*
X128100Y675125D02*
Y681875D01*
X95725Y678500D02*
X102475D01*
X99100Y675125D02*
Y681875D01*
X37725Y678500D02*
X44475D01*
X41100Y675125D02*
Y681875D01*
X8725Y678500D02*
X15475D01*
X12100Y675125D02*
Y681875D01*
X66725Y678500D02*
X73475D01*
X70100Y675125D02*
Y681875D01*
X166600Y351000D02*
X169400D01*
X168000Y349600D02*
Y352400D01*
M02*
