%FSLAX25Y25*%
%MOIN*%
G70*
G01*
G75*
G04 Layer_Color=32768*
%ADD10R,0.09000X0.15000*%
%ADD11C,0.05000*%
%ADD12C,0.02500*%
%ADD13R,0.46000X0.47000*%
%ADD14R,0.35500X1.86000*%
%ADD15R,0.36000X1.86000*%
%ADD16R,0.37000X1.86000*%
%ADD17R,0.36500X1.86000*%
%ADD18R,0.39000X1.87000*%
%ADD19R,0.37000X1.87000*%
%ADD20R,0.37500X1.87000*%
%ADD21R,0.38000X1.87000*%
%ADD22R,0.15000X1.88000*%
%ADD23O,0.06300X0.05500*%
%ADD24C,0.40000*%
%ADD25R,0.05906X0.05906*%
%ADD26C,0.05906*%
%ADD27C,0.05906*%
%ADD28R,0.10780X1.86811*%
G04:AMPARAMS|DCode=29|XSize=1868.11mil|YSize=107.8mil|CornerRadius=26.95mil|HoleSize=0mil|Usage=FLASHONLY|Rotation=270.000|XOffset=0mil|YOffset=0mil|HoleType=Round|Shape=RoundedRectangle|*
%AMROUNDEDRECTD29*
21,1,1.86811,0.05390,0,0,270.0*
21,1,1.81421,0.10780,0,0,270.0*
1,1,0.05390,-0.02695,-0.90711*
1,1,0.05390,-0.02695,0.90711*
1,1,0.05390,0.02695,0.90711*
1,1,0.05390,0.02695,-0.90711*
%
%ADD29ROUNDEDRECTD29*%
%ADD30C,0.05000*%
%ADD31C,0.01000*%
%ADD32C,0.01500*%
%ADD33R,0.43000X0.45000*%
%ADD34R,0.37500X1.86000*%
%ADD35C,0.00700*%
%ADD36C,0.00787*%
%ADD37C,0.00800*%
%ADD38R,0.09800X0.15800*%
%ADD39O,0.07100X0.06300*%
%ADD40C,0.40800*%
%ADD41R,0.06706X0.06706*%
%ADD42C,0.06706*%
%ADD43C,0.06706*%
%ADD44R,0.11580X1.87611*%
G04:AMPARAMS|DCode=45|XSize=1876.11mil|YSize=115.8mil|CornerRadius=30.95mil|HoleSize=0mil|Usage=FLASHONLY|Rotation=270.000|XOffset=0mil|YOffset=0mil|HoleType=Round|Shape=RoundedRectangle|*
%AMROUNDEDRECTD45*
21,1,1.87611,0.05390,0,0,270.0*
21,1,1.81421,0.11580,0,0,270.0*
1,1,0.06190,-0.02695,-0.90711*
1,1,0.06190,-0.02695,0.90711*
1,1,0.06190,0.02695,0.90711*
1,1,0.06190,0.02695,-0.90711*
%
%ADD45ROUNDEDRECTD45*%
%ADD46C,0.00800*%
%ADD47C,0.05800*%
%ADD48C,0.01969*%
%ADD49C,0.00701*%
D35*
X37000Y363000D02*
Y379000D01*
X7000D02*
X37000D01*
X7000Y363000D02*
Y379000D01*
Y363000D02*
X37000D01*
X66000Y301500D02*
Y317500D01*
X36000D02*
X66000D01*
X36000Y301500D02*
Y317500D01*
Y301500D02*
X66000D01*
X96000Y370000D02*
Y386000D01*
X66000D02*
X96000D01*
X66000Y370000D02*
Y386000D01*
Y370000D02*
X96000D01*
X115000Y294000D02*
Y310000D01*
X85000D02*
X115000D01*
X85000Y294000D02*
Y310000D01*
Y294000D02*
X115000D01*
X153500Y367500D02*
Y383500D01*
X123500D02*
X153500D01*
X123500Y367500D02*
Y383500D01*
Y367500D02*
X153500D01*
X151500Y286500D02*
Y302500D01*
X121500D02*
X151500D01*
X121500Y286500D02*
Y302500D01*
Y286500D02*
X151500D01*
X222000Y366000D02*
Y382000D01*
X192000D02*
X222000D01*
X192000Y366000D02*
Y382000D01*
Y366000D02*
X222000D01*
X188500Y283500D02*
Y299500D01*
Y283500D02*
X218500D01*
Y299500D01*
X188500D02*
X218500D01*
X230500Y366000D02*
Y382000D01*
Y366000D02*
X260500D01*
Y382000D01*
X230500D02*
X260500D01*
X239500Y283500D02*
Y299500D01*
Y283500D02*
X269500D01*
Y299500D01*
X239500D02*
X269500D01*
X291000Y369500D02*
Y385500D01*
X261000D02*
X291000D01*
X261000Y369500D02*
Y385500D01*
Y369500D02*
X291000D01*
X350500Y285000D02*
Y301000D01*
X320500D02*
X350500D01*
X320500Y285000D02*
Y301000D01*
Y285000D02*
X350500D01*
X370000Y368000D02*
Y384000D01*
X340000D02*
X370000D01*
X340000Y368000D02*
Y384000D01*
Y368000D02*
X370000D01*
X399000Y292000D02*
Y308000D01*
X369000D02*
X399000D01*
X369000Y292000D02*
Y308000D01*
Y292000D02*
X399000D01*
X428000Y368000D02*
Y384000D01*
X398000D02*
X428000D01*
X398000Y368000D02*
Y384000D01*
Y368000D02*
X428000D01*
X457000Y298500D02*
Y314500D01*
X427000D02*
X457000D01*
X427000Y298500D02*
Y314500D01*
Y298500D02*
X457000D01*
D49*
X435000Y-20D02*
X464000D01*
X435000Y685020D02*
X464000D01*
X435000Y-20D02*
Y685020D01*
X464000Y-20D02*
Y685020D01*
X406000D02*
X435000D01*
X406000Y-20D02*
X435000D01*
Y685020D01*
X406000Y-20D02*
Y685020D01*
X377000Y-20D02*
X406000D01*
X377000Y685020D02*
X406000D01*
X377000Y-20D02*
Y685020D01*
X406000Y-20D02*
Y685020D01*
X348000D02*
X377000D01*
X348000Y-20D02*
X377000D01*
Y685020D01*
X348000Y-20D02*
Y685020D01*
X319000Y-20D02*
X348000D01*
X319000Y685020D02*
X348000D01*
X319000Y-20D02*
Y685020D01*
X348000Y-20D02*
Y685020D01*
X290000D02*
X319000D01*
X290000Y-20D02*
X319000D01*
Y685020D01*
X290000Y-20D02*
Y685020D01*
X261000Y-20D02*
X290000D01*
X261000Y685020D02*
X290000D01*
X261000Y-20D02*
Y685020D01*
X290000Y-20D02*
Y685020D01*
X232000D02*
X261000D01*
X232000Y-20D02*
X261000D01*
Y685020D01*
X232000Y-20D02*
Y685020D01*
X203000Y-20D02*
X232000D01*
X203000Y685020D02*
X232000D01*
X203000Y-20D02*
Y685020D01*
X232000Y-20D02*
Y685020D01*
X87000Y-20D02*
X116000D01*
X87000Y685020D02*
X116000D01*
X87000Y-20D02*
Y685020D01*
X116000Y-20D02*
Y685020D01*
X29000Y-20D02*
X58000D01*
X29000Y685020D02*
X58000D01*
X29000Y-20D02*
Y685020D01*
X58000Y-20D02*
Y685020D01*
X174000D02*
X203000D01*
X174000Y-20D02*
X203000D01*
Y685020D01*
X174000Y-20D02*
Y685020D01*
X145000Y-20D02*
X174000D01*
X145000Y685020D02*
X174000D01*
X145000Y-20D02*
Y685020D01*
X174000Y-20D02*
Y685020D01*
X116000D02*
X145000D01*
X116000Y-20D02*
X145000D01*
Y685020D01*
X116000Y-20D02*
Y685020D01*
X58000D02*
X87000D01*
X58000Y-20D02*
X87000D01*
Y685020D01*
X58000Y-20D02*
Y685020D01*
X0D02*
X29000D01*
X0Y-20D02*
X29000D01*
Y685020D01*
X0Y-20D02*
Y685020D01*
M02*
