%FSLAX25Y25*%
%MOIN*%
G70*
G01*
G75*
G04 Layer_Color=255*
%ADD10R,0.09000X0.15000*%
%ADD11C,0.05000*%
%ADD12C,0.02500*%
%ADD13R,0.46000X0.47000*%
%ADD14R,0.35500X1.86000*%
%ADD15R,0.36000X1.86000*%
%ADD16R,0.37000X1.86000*%
%ADD17R,0.36500X1.86000*%
%ADD18R,0.39000X1.87000*%
%ADD19R,0.37000X1.87000*%
%ADD20R,0.37500X1.87000*%
%ADD21R,0.38000X1.87000*%
%ADD22R,0.15000X1.88000*%
%ADD23O,0.06300X0.05500*%
%ADD24C,0.40000*%
%ADD25R,0.05906X0.05906*%
%ADD26C,0.05906*%
%ADD27C,0.05906*%
%ADD28R,0.10780X1.86811*%
G04:AMPARAMS|DCode=29|XSize=1868.11mil|YSize=107.8mil|CornerRadius=26.95mil|HoleSize=0mil|Usage=FLASHONLY|Rotation=270.000|XOffset=0mil|YOffset=0mil|HoleType=Round|Shape=RoundedRectangle|*
%AMROUNDEDRECTD29*
21,1,1.86811,0.05390,0,0,270.0*
21,1,1.81421,0.10780,0,0,270.0*
1,1,0.05390,-0.02695,-0.90711*
1,1,0.05390,-0.02695,0.90711*
1,1,0.05390,0.02695,0.90711*
1,1,0.05390,0.02695,-0.90711*
%
%ADD29ROUNDEDRECTD29*%
%ADD30C,0.05000*%
%ADD31C,0.01000*%
%ADD32C,0.01500*%
%ADD33R,0.43000X0.45000*%
%ADD34R,0.37500X1.86000*%
D23*
X58000Y343957D02*
D03*
Y351043D02*
D03*
X146000Y343957D02*
D03*
Y351043D02*
D03*
X233000Y343957D02*
D03*
Y351043D02*
D03*
X319000Y343957D02*
D03*
Y351043D02*
D03*
X406000Y342957D02*
D03*
Y350043D02*
D03*
D24*
X170000Y636500D02*
D03*
X62500D02*
D03*
D25*
X206500Y620000D02*
D03*
X168000Y319500D02*
D03*
D26*
X206500Y610000D02*
D03*
X216500Y620000D02*
D03*
Y610000D02*
D03*
X226500Y620000D02*
D03*
Y610000D02*
D03*
X236500Y620000D02*
D03*
Y610000D02*
D03*
X246500Y620000D02*
D03*
Y610000D02*
D03*
X256500Y620000D02*
D03*
Y610000D02*
D03*
X266500Y620000D02*
D03*
Y610000D02*
D03*
X276500Y620000D02*
D03*
Y610000D02*
D03*
X286500Y620000D02*
D03*
Y610000D02*
D03*
X296500Y620000D02*
D03*
Y610000D02*
D03*
X306500Y620000D02*
D03*
Y610000D02*
D03*
X316500Y620000D02*
D03*
Y610000D02*
D03*
X336500Y620000D02*
D03*
Y610000D02*
D03*
X346500Y620000D02*
D03*
Y610000D02*
D03*
X356500Y620000D02*
D03*
Y610000D02*
D03*
X366500Y620000D02*
D03*
Y610000D02*
D03*
X376500Y620000D02*
D03*
Y610000D02*
D03*
X386500Y620000D02*
D03*
Y610000D02*
D03*
X396500Y620000D02*
D03*
Y610000D02*
D03*
X406500Y620000D02*
D03*
Y610000D02*
D03*
X416500Y620000D02*
D03*
Y610000D02*
D03*
X426500Y620000D02*
D03*
Y610000D02*
D03*
X436500Y620000D02*
D03*
Y610000D02*
D03*
X446500Y620000D02*
D03*
Y610000D02*
D03*
X308000Y319500D02*
D03*
Y309500D02*
D03*
X298000D02*
D03*
Y319500D02*
D03*
X278000Y309500D02*
D03*
Y319500D02*
D03*
X268000Y309500D02*
D03*
Y319500D02*
D03*
X258000Y309500D02*
D03*
Y319500D02*
D03*
X248000Y309500D02*
D03*
Y319500D02*
D03*
X238000Y309500D02*
D03*
Y319500D02*
D03*
X228000Y309500D02*
D03*
Y319500D02*
D03*
X218000Y309500D02*
D03*
Y319500D02*
D03*
X208000Y309500D02*
D03*
Y319500D02*
D03*
X198000Y309500D02*
D03*
Y319500D02*
D03*
X188000Y309500D02*
D03*
Y319500D02*
D03*
X178000Y309500D02*
D03*
Y319500D02*
D03*
X168000Y309500D02*
D03*
D27*
X288000D02*
D03*
Y319500D02*
D03*
D28*
X449500Y186716D02*
D03*
X420500Y498283D02*
D03*
X391500Y186716D02*
D03*
X362500Y498283D02*
D03*
X333500Y186716D02*
D03*
X304500Y498283D02*
D03*
X275500Y186716D02*
D03*
X246500Y498283D02*
D03*
X217500Y186716D02*
D03*
X101500D02*
D03*
X43500D02*
D03*
X188500Y498283D02*
D03*
X159500Y186716D02*
D03*
X130500Y498283D02*
D03*
X72500D02*
D03*
X14500D02*
D03*
D29*
X449500D02*
D03*
X420500Y186716D02*
D03*
X391500Y498283D02*
D03*
X362500Y186716D02*
D03*
X333500Y498283D02*
D03*
X304500Y186716D02*
D03*
X275500Y498283D02*
D03*
X246500Y186716D02*
D03*
X217500Y498283D02*
D03*
X101500D02*
D03*
X43500D02*
D03*
X188500Y186716D02*
D03*
X159500Y498283D02*
D03*
X130500Y186716D02*
D03*
X72500D02*
D03*
X14500D02*
D03*
M02*
