M48
;Layer_Color=9474304
;FILE_FORMAT=2:5
INCH,LZ
;TYPE=PLATED
T3F00S00C0.03000
;TYPE=NON_PLATED
T7F00S00C0.06750
%
G90
G05
T03
G00X03915Y0274685
M15
G01Y0098748
M16
G00X04205Y0098748
M15
G01Y0274685
M16
G00X04495Y0274685
M15
G01Y0098748
M16
G00X03625Y0098748
M15
G01Y0274685
M16
G00X03335Y0274685
M15
G01Y0098748
M16
G00X03045Y0098748
M15
G01Y0274685
M16
G00X02755Y0274685
M15
G01Y0098748
M16
G00X02465Y0098748
M15
G01Y0274685
M16
G00X02175Y0274685
M15
G01Y0098748
M16
G00X01885Y0098748
M15
G01Y0274685
M16
G00X01595Y0274685
M15
G01Y0098748
M16
G00X01305Y0098748
M15
G01Y0274685
M16
G00X01015Y0274685
M15
G01Y0098748
M16
G00X00725Y0098748
M15
G01Y0274685
M16
G00X00435Y0274685
M15
G01Y0098748
M16
G00X00145Y0098748
M15
G01Y0274685
M16
G00X03915Y0586252
M15
G01Y0410315
M16
G00X04205Y0410315
M15
G01Y0586252
M16
G00X04495Y0586252
M15
G01Y0410315
M16
G00X03625Y0410315
M15
G01Y0586252
M16
G00X03335Y0586252
M15
G01Y0410315
M16
G00X03045Y0410315
M15
G01Y0586252
M16
G00X02755Y0586252
M15
G01Y0410315
M16
G00X02465Y0410315
M15
G01Y0586252
M16
G00X02175Y0586252
M15
G01Y0410315
M16
G00X01885Y0410315
M15
G01Y0586252
M16
G00X01595Y0586252
M15
G01Y0410315
M16
G00X01305Y0410315
M15
G01Y0586252
M16
G00X01015Y0586252
M15
G01Y0410315
M16
G00X00725Y0410315
M15
G01Y0586252
M16
G00X00435Y0586252
M15
G01Y0410315
M16
G00X00145Y0410315
M15
G01Y0586252
M16
T07
G00X03891Y00597
M15
G01Y00847
M16
G00X04181Y00597
M15
G01Y00847
M16
G00X04471Y00597
M15
G01Y00847
M16
G00X03601Y00597
M15
G01Y00847
M16
G00X03311Y00597
M15
G01Y00847
M16
G00X03021Y00597
M15
G01Y00847
M16
G00X02731Y00597
M15
G01Y00847
M16
G00X02441Y00597
M15
G01Y00847
M16
G00X02151Y00597
M15
G01Y00847
M16
G00X01861Y00597
M15
G01Y00847
M16
G00X01571Y00597
M15
G01Y00847
M16
G00X01281Y00597
M15
G01Y00847
M16
G00X00991Y00597
M15
G01Y00847
M16
G00X00701Y00597
M15
G01Y00847
M16
G00X00411Y00597
M15
G01Y00847
M16
G00X00121Y00597
M15
G01Y00847
M16
G00X00125Y03297
M15
G01Y03547
M16
G00X00411Y03297
M15
G01Y03547
M16
G00X00701Y03297
M15
G01Y03547
M16
G00X00991Y03297
M15
G01Y03547
M16
G00X01281Y03297
M15
G01Y03547
M16
G00X01571Y03297
M15
G01Y03547
M16
G00X01861Y03297
M15
G01Y03547
M16
G00X02151Y03297
M15
G01Y03547
M16
G00X02441Y03297
M15
G01Y03547
M16
G00X02731Y03297
M15
G01Y03547
M16
G00X03021Y03297
M15
G01Y03547
M16
G00X03311Y03297
M15
G01Y03547
M16
G00X03601Y03297
M15
G01Y03547
M16
G00X03891Y03297
M15
G01Y03547
M16
G00X04181Y03297
M15
G01Y03547
M16
G00X04471Y03297
M15
G01Y03547
M16
G00X00411Y0671875
M15
G01Y0685125
M16
G00X00121Y0671875
M15
G01Y0685125
M16
G00X00701Y0671875
M15
G01Y0685125
M16
G00X00991Y0671875
M15
G01Y0685125
M16
G00X01281Y0671875
M15
G01Y0685125
M16
G00X01571Y0671875
M15
G01Y0685125
M16
G00X01861Y0671875
M15
G01Y0685125
M16
G00X02151Y0671875
M15
G01Y0685125
M16
G00X02441Y0671875
M15
G01Y0685125
M16
G00X02731Y0671875
M15
G01Y0685125
M16
G00X03021Y0671875
M15
G01Y0685125
M16
G00X03311Y0671875
M15
G01Y0685125
M16
G00X03601Y0671875
M15
G01Y0685125
M16
G00X03891Y0671875
M15
G01Y0685125
M16
G00X04181Y0671875
M15
G01Y0685125
M16
G00X04471Y0671875
M15
G01Y0685125
M16
M17
M30
