M48
;Layer_Color=9474304
;FILE_FORMAT=2:5
INCH,LZ
;TYPE=PLATED
T1F00S00C0.02800
T2F00S00C0.03000
T4F00S00C0.03750
T5F00S00C0.25000
;TYPE=NON_PLATED
T6F00S00C0.03750
T8F00S00C0.13500
%
T01
X0168Y0351
T02
X0058Y0343957
Y0351043
X0146
Y0343957
X0233
Y0351043
X0319
Y0343957
X0406Y0342957
Y0350043
T04
X0168Y03095
Y03195
X0178
X0188
X0198
X0208
Y03095
X0198
X0188
X0178
X0218
Y03195
X0228
X0238
X0248
X0258
X0268
X0278
X0288
X0298
X0308
Y03095
X0298
X0288
X0278
X0268
X0258
X0248
X0238
X0228
X02165Y061
Y062
X02065
Y061
X02265
Y062
X02365
X02465
X02565
X02665
X02765
X02865
X02965
X03065
X03165
Y061
X03065
X02965
X02865
X02765
X02665
X02565
X02465
X02365
X03365
Y062
X03465
X03565
X03665
Y061
X03565
X03465
X03765
Y062
X03865
X03965
X04065
X04165
X04265
X04365
X04465
Y061
X04365
X04265
X04165
X04065
X03965
X03865
T05
X00625Y06365
X017
T06
X03265Y061
Y062
T08
X003Y003
X0434
X0025Y0655
X0116Y06365
X0434Y0655
M30
