%FSLAX25Y25*%
%MOIN*%
G70*
G01*
G75*
G04 Layer_Color=8421504*
%ADD10R,0.09000X0.15000*%
%ADD11C,0.05000*%
%ADD12C,0.02500*%
%ADD13R,0.46000X0.47000*%
%ADD14R,0.35500X1.86000*%
%ADD15R,0.36000X1.86000*%
%ADD16R,0.37000X1.86000*%
%ADD17R,0.36500X1.86000*%
%ADD18R,0.39000X1.87000*%
%ADD19R,0.37000X1.87000*%
%ADD20R,0.37500X1.87000*%
%ADD21R,0.38000X1.87000*%
%ADD22R,0.15000X1.88000*%
%ADD23O,0.06300X0.05500*%
%ADD24C,0.40000*%
%ADD25R,0.05906X0.05906*%
%ADD26C,0.05906*%
%ADD27C,0.05906*%
%ADD28R,0.10780X1.86811*%
G04:AMPARAMS|DCode=29|XSize=1868.11mil|YSize=107.8mil|CornerRadius=26.95mil|HoleSize=0mil|Usage=FLASHONLY|Rotation=270.000|XOffset=0mil|YOffset=0mil|HoleType=Round|Shape=RoundedRectangle|*
%AMROUNDEDRECTD29*
21,1,1.86811,0.05390,0,0,270.0*
21,1,1.81421,0.10780,0,0,270.0*
1,1,0.05390,-0.02695,-0.90711*
1,1,0.05390,-0.02695,0.90711*
1,1,0.05390,0.02695,0.90711*
1,1,0.05390,0.02695,-0.90711*
%
%ADD29ROUNDEDRECTD29*%
%ADD30C,0.05000*%
%ADD31C,0.01000*%
%ADD32C,0.01500*%
%ADD33R,0.43000X0.45000*%
%ADD34R,0.37500X1.86000*%
%ADD35C,0.00700*%
%ADD36C,0.00787*%
%ADD37C,0.00800*%
D10*
X12500Y371000D02*
D03*
X31500D02*
D03*
X41500Y309500D02*
D03*
X60500D02*
D03*
X71500Y378000D02*
D03*
X90500D02*
D03*
Y302000D02*
D03*
X109500D02*
D03*
X129000Y375500D02*
D03*
X148000D02*
D03*
X127000Y294500D02*
D03*
X146000D02*
D03*
X197500Y374000D02*
D03*
X216500D02*
D03*
X213000Y291500D02*
D03*
X194000D02*
D03*
X255000Y374000D02*
D03*
X236000D02*
D03*
X264000Y291500D02*
D03*
X245000D02*
D03*
X266500Y377500D02*
D03*
X285500D02*
D03*
X326000Y293000D02*
D03*
X345000D02*
D03*
X345500Y376000D02*
D03*
X364500D02*
D03*
X374500Y300000D02*
D03*
X393500D02*
D03*
X403500Y376000D02*
D03*
X422500D02*
D03*
X432500Y306500D02*
D03*
X451500D02*
D03*
M02*
